<?xml version="1.0"?>
<svg xmlns="http://www.w3.org/2000/svg" xmlns:xlink="http://www.w3.org/1999/xlink" version="1.1" width="320px" height="320px" viewBox="0 0 320 320"><rect x="0" y="0" width="320" height="320" fill="#ffffff" fill-opacity="1"/><path fill="#000000" fill-opacity="1" d="M15,15L85,15L85,25L15,25ZM95,15L105,15L105,25L95,25ZM115,15L125,15L125,25L115,25ZM135,15L145,15L145,25L135,25ZM155,15L175,15L175,25L155,25ZM235,15L305,15L305,25L235,25ZM15,25L25,25L25,35L15,35ZM75,25L85,25L85,35L75,35ZM105,25L155,25L155,35L105,35ZM165,25L175,25L175,35L165,35ZM195,25L225,25L225,35L195,35ZM235,25L245,25L245,35L235,35ZM295,25L305,25L305,35L295,35ZM15,35L25,35L25,45L15,45ZM35,35L65,35L65,45L35,45ZM75,35L85,35L85,45L75,45ZM95,35L125,35L125,45L95,45ZM165,35L175,35L175,45L165,45ZM215,35L225,35L225,45L215,45ZM235,35L245,35L245,45L235,45ZM255,35L285,35L285,45L255,45ZM295,35L305,35L305,45L295,45ZM15,45L25,45L25,55L15,55ZM35,45L65,45L65,55L35,55ZM75,45L85,45L85,55L75,55ZM95,45L125,45L125,55L95,55ZM135,45L145,45L145,55L135,55ZM155,45L205,45L205,55L155,55ZM235,45L245,45L245,55L235,55ZM255,45L285,45L285,55L255,55ZM295,45L305,45L305,55L295,55ZM15,55L25,55L25,65L15,65ZM35,55L65,55L65,65L35,65ZM75,55L85,55L85,65L75,65ZM95,55L105,55L105,65L95,65ZM125,55L145,55L145,65L125,65ZM155,55L165,55L165,65L155,65ZM185,55L225,55L225,65L185,65ZM235,55L245,55L245,65L235,65ZM255,55L285,55L285,65L255,65ZM295,55L305,55L305,65L295,65ZM15,65L25,65L25,75L15,75ZM75,65L85,65L85,75L75,75ZM115,65L135,65L135,75L115,75ZM175,65L225,65L225,75L175,75ZM235,65L245,65L245,75L235,75ZM295,65L305,65L305,75L295,75ZM15,75L85,75L85,85L15,85ZM95,75L105,75L105,85L95,85ZM115,75L125,75L125,85L115,85ZM135,75L145,75L145,85L135,85ZM155,75L165,75L165,85L155,85ZM175,75L185,75L185,85L175,85ZM195,75L205,75L205,85L195,85ZM215,75L225,75L225,85L215,85ZM235,75L305,75L305,85L235,85ZM115,85L125,85L125,95L115,95ZM135,85L185,85L185,95L135,95ZM205,85L215,85L215,95L205,95ZM15,95L55,95L55,105L15,105ZM75,95L85,95L85,105L75,105ZM95,95L105,95L105,105L95,105ZM115,95L145,95L145,105L115,105ZM155,95L165,95L165,105L155,105ZM205,95L235,95L235,105L205,105ZM255,95L285,95L285,105L255,105ZM295,95L305,95L305,105L295,105ZM15,105L25,105L25,115L15,115ZM55,105L75,105L75,115L55,115ZM115,105L125,105L125,115L115,115ZM135,105L145,105L145,115L135,115ZM165,105L185,105L185,115L165,115ZM195,105L205,105L205,115L195,115ZM225,105L245,105L245,115L225,115ZM255,105L275,105L275,115L255,115ZM295,105L305,105L305,115L295,115ZM35,115L45,115L45,125L35,125ZM55,115L95,115L95,125L55,125ZM105,115L155,115L155,125L105,125ZM165,115L175,115L175,125L165,125ZM195,115L225,115L225,125L195,125ZM265,115L295,115L295,125L265,125ZM15,125L35,125L35,135L15,135ZM45,125L65,125L65,135L45,135ZM95,125L125,125L125,135L95,135ZM145,125L155,125L155,135L145,135ZM165,125L175,125L175,135L165,135ZM215,125L235,125L235,135L215,135ZM245,125L255,125L255,135L245,135ZM265,125L275,125L275,135L265,135ZM295,125L305,125L305,135L295,135ZM45,135L95,135L95,145L45,145ZM105,135L125,135L125,145L105,145ZM135,135L155,135L155,145L135,145ZM165,135L185,135L185,145L165,145ZM195,135L205,135L205,145L195,145ZM215,135L265,135L265,145L215,145ZM275,135L285,135L285,145L275,145ZM45,145L65,145L65,155L45,155ZM85,145L105,145L105,155L85,155ZM125,145L145,145L145,155L125,155ZM165,145L205,145L205,155L165,155ZM215,145L225,145L225,155L215,155ZM235,145L245,145L245,155L235,155ZM265,145L295,145L295,155L265,155ZM25,155L45,155L45,165L25,165ZM55,155L85,155L85,165L55,165ZM95,155L105,155L105,165L95,165ZM125,155L135,155L135,165L125,165ZM155,155L165,155L165,165L155,165ZM175,155L215,155L215,165L175,165ZM235,155L245,155L245,165L235,165ZM265,155L275,155L275,165L265,165ZM295,155L305,155L305,165L295,165ZM15,165L65,165L65,175L15,175ZM95,165L105,165L105,175L95,175ZM115,165L135,165L135,175L115,175ZM145,165L155,165L155,175L145,175ZM175,165L185,165L185,175L175,175ZM205,165L225,165L225,175L205,175ZM235,165L265,165L265,175L235,175ZM275,165L295,165L295,175L275,175ZM15,175L25,175L25,185L15,185ZM45,175L55,175L55,185L45,185ZM75,175L85,175L85,185L75,185ZM95,175L125,175L125,185L95,185ZM135,175L155,175L155,185L135,185ZM215,175L235,175L235,185L215,185ZM255,175L295,175L295,185L255,185ZM25,185L45,185L45,195L25,195ZM55,185L75,185L75,195L55,195ZM85,185L105,185L105,195L85,195ZM145,185L165,185L165,195L145,195ZM175,185L185,185L185,195L175,195ZM205,185L215,185L215,195L205,195ZM295,185L305,185L305,195L295,195ZM15,195L25,195L25,205L15,205ZM45,195L55,195L55,205L45,205ZM75,195L105,195L105,205L75,205ZM145,195L175,195L175,205L145,205ZM185,195L195,195L195,205L185,205ZM205,195L215,195L215,205L205,205ZM225,195L235,195L235,205L225,205ZM245,195L265,195L265,205L245,205ZM285,195L305,195L305,205L285,205ZM35,205L45,205L45,215L35,215ZM85,205L115,205L115,215L85,215ZM125,205L135,205L135,215L125,215ZM145,205L165,205L165,215L145,215ZM175,205L215,205L215,215L175,215ZM225,205L245,205L245,215L225,215ZM265,205L285,205L285,215L265,215ZM295,205L305,205L305,215L295,215ZM25,215L45,215L45,225L25,225ZM55,215L65,215L65,225L55,225ZM75,215L105,215L105,225L75,225ZM115,215L125,215L125,225L115,225ZM145,215L165,215L165,225L145,225ZM185,215L195,215L195,225L185,225ZM205,215L265,215L265,225L205,225ZM275,215L285,215L285,225L275,225ZM295,215L305,215L305,225L295,225ZM95,225L105,225L105,235L95,235ZM155,225L165,225L165,235L155,235ZM195,225L225,225L225,235L195,235ZM255,225L275,225L275,235L255,235ZM285,225L295,225L295,235L285,235ZM15,235L85,235L85,245L15,245ZM155,235L165,235L165,245L155,245ZM175,235L185,235L185,245L175,245ZM195,235L225,235L225,245L195,245ZM235,235L245,235L245,245L235,245ZM255,235L265,235L265,245L255,245ZM275,235L295,235L295,245L275,245ZM15,245L25,245L25,255L15,255ZM75,245L85,245L85,255L75,255ZM105,245L115,245L115,255L105,255ZM125,245L155,245L155,255L125,255ZM165,245L185,245L185,255L165,255ZM205,245L225,245L225,255L205,255ZM255,245L265,245L265,255L255,255ZM275,245L285,245L285,255L275,255ZM15,255L25,255L25,265L15,265ZM35,255L65,255L65,265L35,265ZM75,255L85,255L85,265L75,265ZM105,255L135,255L135,265L105,265ZM165,255L175,255L175,265L165,265ZM195,255L305,255L305,265L195,265ZM15,265L25,265L25,275L15,275ZM35,265L65,265L65,275L35,275ZM75,265L85,265L85,275L75,275ZM95,265L135,265L135,275L95,275ZM145,265L165,265L165,275L145,275ZM185,265L205,265L205,275L185,275ZM235,265L245,265L245,275L235,275ZM275,265L295,265L295,275L275,275ZM15,275L25,275L25,285L15,285ZM35,275L65,275L65,285L35,285ZM75,275L85,275L85,285L75,285ZM95,275L125,275L125,285L95,285ZM135,275L145,275L145,285L135,285ZM155,275L165,275L165,285L155,285ZM185,275L205,275L205,285L185,285ZM225,275L255,275L255,285L225,285ZM265,275L285,275L285,285L265,285ZM295,275L305,275L305,285L295,285ZM15,285L25,285L25,295L15,295ZM75,285L85,285L85,295L75,295ZM95,285L105,285L105,295L95,295ZM135,285L155,285L155,295L135,295ZM195,285L205,285L205,295L195,295ZM215,285L235,285L235,295L215,295ZM245,285L285,285L285,295L245,295ZM295,285L305,285L305,295L295,295ZM15,295L85,295L85,305L15,305ZM95,295L105,295L105,305L95,305ZM125,295L135,295L135,305L125,305ZM185,295L205,295L205,305L185,305ZM225,295L245,295L245,305L225,305ZM265,295L295,295L295,305L265,305Z"/></svg>
