<?xml version="1.0"?>
<svg xmlns="http://www.w3.org/2000/svg" xmlns:xlink="http://www.w3.org/1999/xlink" version="1.1" width="320px" height="320px" viewBox="0 0 320 320"><rect x="0" y="0" width="320" height="320" fill="#ffffff" fill-opacity="1"/><path fill="#000000" fill-opacity="1" d="M15,15L85,15L85,25L15,25ZM105,15L115,15L115,25L105,25ZM135,15L145,15L145,25L135,25ZM175,15L185,15L185,25L175,25ZM215,15L225,15L225,25L215,25ZM235,15L305,15L305,25L235,25ZM15,25L25,25L25,35L15,35ZM75,25L85,25L85,35L75,35ZM115,25L145,25L145,35L115,35ZM155,25L165,25L165,35L155,35ZM195,25L205,25L205,35L195,35ZM235,25L245,25L245,35L235,35ZM295,25L305,25L305,35L295,35ZM15,35L25,35L25,45L15,45ZM35,35L65,35L65,45L35,45ZM75,35L85,35L85,45L75,45ZM95,35L125,35L125,45L95,45ZM135,35L175,35L175,45L135,45ZM195,35L215,35L215,45L195,45ZM235,35L245,35L245,45L235,45ZM255,35L285,35L285,45L255,45ZM295,35L305,35L305,45L295,45ZM15,45L25,45L25,55L15,55ZM35,45L65,45L65,55L35,55ZM75,45L85,45L85,55L75,55ZM105,45L135,45L135,55L105,55ZM145,45L185,45L185,55L145,55ZM205,45L215,45L215,55L205,55ZM235,45L245,45L245,55L235,55ZM255,45L285,45L285,55L255,55ZM295,45L305,45L305,55L295,55ZM15,55L25,55L25,65L15,65ZM35,55L65,55L65,65L35,65ZM75,55L85,55L85,65L75,65ZM115,55L125,55L125,65L115,65ZM155,55L165,55L165,65L155,65ZM175,55L185,55L185,65L175,65ZM205,55L225,55L225,65L205,65ZM235,55L245,55L245,65L235,65ZM255,55L285,55L285,65L255,65ZM295,55L305,55L305,65L295,65ZM15,65L25,65L25,75L15,75ZM75,65L85,65L85,75L75,75ZM105,65L115,65L115,75L105,75ZM165,65L175,65L175,75L165,75ZM195,65L225,65L225,75L195,75ZM235,65L245,65L245,75L235,75ZM295,65L305,65L305,75L295,75ZM15,75L85,75L85,85L15,85ZM95,75L105,75L105,85L95,85ZM115,75L125,75L125,85L115,85ZM135,75L145,75L145,85L135,85ZM155,75L165,75L165,85L155,85ZM175,75L185,75L185,85L175,85ZM195,75L205,75L205,85L195,85ZM215,75L225,75L225,85L215,85ZM235,75L305,75L305,85L235,85ZM95,85L125,85L125,95L95,95ZM135,85L145,85L145,95L135,95ZM175,85L185,85L185,95L175,95ZM215,85L225,85L225,95L215,95ZM15,95L45,95L45,105L15,105ZM55,95L105,95L105,105L55,105ZM115,95L135,95L135,105L115,105ZM145,95L155,95L155,105L145,105ZM195,95L205,95L205,105L195,105ZM225,95L245,95L245,105L225,105ZM275,95L285,95L285,105L275,105ZM25,105L35,105L35,115L25,115ZM45,105L55,105L55,115L45,115ZM65,105L75,105L75,115L65,115ZM85,105L105,105L105,115L85,115ZM115,105L135,105L135,115L115,115ZM145,105L155,105L155,115L145,115ZM165,105L195,105L195,115L165,115ZM205,105L215,105L215,115L205,115ZM225,105L255,105L255,115L225,115ZM295,105L305,105L305,115L295,115ZM35,115L55,115L55,125L35,125ZM65,115L85,115L85,125L65,125ZM95,115L115,115L115,125L95,125ZM145,115L155,115L155,125L145,125ZM165,115L195,115L195,125L165,125ZM205,115L225,115L225,125L205,125ZM235,115L305,115L305,125L235,125ZM35,125L45,125L45,135L35,135ZM65,125L75,125L75,135L65,135ZM85,125L95,125L95,135L85,135ZM125,125L135,125L135,135L125,135ZM145,125L155,125L155,135L145,135ZM175,125L195,125L195,135L175,135ZM215,125L225,125L225,135L215,135ZM235,125L245,125L245,135L235,135ZM265,125L275,125L275,135L265,135ZM285,125L295,125L295,135L285,135ZM25,135L85,135L85,145L25,145ZM95,135L105,135L105,145L95,145ZM135,135L165,135L165,145L135,145ZM195,135L205,135L205,145L195,145ZM245,135L265,135L265,145L245,145ZM285,135L305,135L305,145L285,145ZM15,145L75,145L75,155L15,155ZM105,145L115,145L115,155L105,155ZM125,145L165,145L165,155L125,155ZM175,145L215,145L215,155L175,155ZM225,145L245,145L245,155L225,155ZM15,155L25,155L25,165L15,165ZM55,155L65,155L65,165L55,165ZM75,155L85,155L85,165L75,165ZM95,155L115,155L115,165L95,165ZM125,155L155,155L155,165L125,165ZM175,155L195,155L195,165L175,165ZM215,155L225,155L225,165L215,165ZM235,155L245,155L245,165L235,165ZM255,155L265,155L265,165L255,165ZM275,155L285,155L285,165L275,165ZM295,155L305,155L305,165L295,165ZM15,165L25,165L25,175L15,175ZM35,165L45,165L45,175L35,175ZM55,165L65,165L65,175L55,175ZM135,165L145,165L145,175L135,175ZM175,165L205,165L205,175L175,175ZM215,165L225,165L225,175L215,175ZM235,165L245,165L245,175L235,175ZM265,165L295,165L295,175L265,175ZM15,175L25,175L25,185L15,185ZM35,175L45,175L45,185L35,185ZM55,175L85,175L85,185L55,185ZM105,175L135,175L135,185L105,185ZM145,175L155,175L155,185L145,185ZM175,175L205,175L205,185L175,185ZM215,175L255,175L255,185L215,185ZM265,175L305,175L305,185L265,185ZM55,185L65,185L65,195L55,195ZM85,185L105,185L105,195L85,195ZM115,185L135,185L135,195L115,195ZM145,185L175,185L175,195L145,195ZM185,185L195,185L195,195L185,195ZM205,185L215,185L215,195L205,195ZM235,185L255,185L255,195L235,195ZM285,185L295,185L295,195L285,195ZM15,195L25,195L25,205L15,205ZM45,195L65,195L65,205L45,205ZM75,195L85,195L85,205L75,205ZM105,195L115,195L115,205L105,205ZM145,195L155,195L155,205L145,205ZM175,195L195,195L195,205L175,205ZM205,195L225,195L225,205L205,205ZM235,195L265,195L265,205L235,205ZM275,195L285,195L285,205L275,205ZM25,205L35,205L35,215L25,215ZM45,205L55,205L55,215L45,215ZM85,205L135,205L135,215L85,215ZM165,205L205,205L205,215L165,215ZM215,205L225,205L225,215L215,215ZM235,205L245,205L245,215L235,215ZM285,205L305,205L305,215L285,215ZM15,215L25,215L25,225L15,225ZM35,215L65,215L65,225L35,225ZM75,215L85,215L85,225L75,225ZM105,215L115,215L115,225L105,225ZM135,215L145,215L145,225L135,225ZM185,215L205,215L205,225L185,225ZM215,215L275,215L275,225L215,225ZM295,215L305,215L305,225L295,225ZM95,225L105,225L105,235L95,235ZM115,225L165,225L165,235L115,235ZM185,225L195,225L195,235L185,235ZM215,225L225,225L225,235L215,235ZM255,225L265,225L265,235L255,235ZM285,225L295,225L295,235L285,235ZM15,235L85,235L85,245L15,245ZM95,235L105,235L105,245L95,245ZM115,235L145,235L145,245L115,245ZM155,235L165,235L165,245L155,245ZM185,235L195,235L195,245L185,245ZM205,235L225,235L225,245L205,245ZM235,235L245,235L245,245L235,245ZM255,235L265,235L265,245L255,245ZM275,235L305,235L305,245L275,245ZM15,245L25,245L25,255L15,255ZM75,245L85,245L85,255L75,255ZM95,245L125,245L125,255L95,255ZM135,245L155,245L155,255L135,255ZM185,245L195,245L195,255L185,255ZM205,245L225,245L225,255L205,255ZM255,245L265,245L265,255L255,255ZM275,245L305,245L305,255L275,255ZM15,255L25,255L25,265L15,265ZM35,255L65,255L65,265L35,265ZM75,255L85,255L85,265L75,265ZM95,255L105,255L105,265L95,265ZM115,255L135,255L135,265L115,265ZM155,255L165,255L165,265L155,265ZM175,255L185,255L185,265L175,265ZM195,255L275,255L275,265L195,265ZM15,265L25,265L25,275L15,275ZM35,265L65,265L65,275L35,275ZM75,265L85,265L85,275L75,275ZM105,265L135,265L135,275L105,275ZM165,265L175,265L175,275L165,275ZM185,265L235,265L235,275L185,275ZM265,265L275,265L275,275L265,275ZM15,275L25,275L25,285L15,285ZM35,275L65,275L65,285L35,285ZM75,275L85,275L85,285L75,285ZM95,275L115,275L115,285L95,285ZM145,275L155,275L155,285L145,285ZM185,275L195,275L195,285L185,285ZM205,275L225,275L225,285L205,285ZM235,275L265,275L265,285L235,285ZM295,275L305,275L305,285L295,285ZM15,285L25,285L25,295L15,295ZM75,285L85,285L85,295L75,295ZM95,285L115,285L115,295L95,295ZM125,285L135,285L135,295L125,295ZM185,285L195,285L195,295L185,295ZM205,285L235,285L235,295L205,295ZM275,285L285,285L285,295L275,295ZM295,285L305,285L305,295L295,295ZM15,295L85,295L85,305L15,305ZM95,295L105,295L105,305L95,305ZM115,295L125,295L125,305L115,305ZM135,295L145,295L145,305L135,305ZM175,295L185,295L185,305L175,305ZM225,295L235,295L235,305L225,305ZM245,295L305,295L305,305L245,305Z"/></svg>
