<?xml version="1.0"?>
<svg xmlns="http://www.w3.org/2000/svg" xmlns:xlink="http://www.w3.org/1999/xlink" version="1.1" width="320px" height="320px" viewBox="0 0 320 320"><rect x="0" y="0" width="320" height="320" fill="#ffffff" fill-opacity="1"/><path fill="#000000" fill-opacity="1" d="M15,15L85,15L85,25L15,25ZM115,15L125,15L125,25L115,25ZM175,15L185,15L185,25L175,25ZM195,15L215,15L215,25L195,25ZM235,15L305,15L305,25L235,25ZM15,25L25,25L25,35L15,35ZM75,25L85,25L85,35L75,35ZM95,25L125,25L125,35L95,35ZM145,25L165,25L165,35L145,35ZM175,25L185,25L185,35L175,35ZM195,25L215,25L215,35L195,35ZM235,25L245,25L245,35L235,35ZM295,25L305,25L305,35L295,35ZM15,35L25,35L25,45L15,45ZM35,35L65,35L65,45L35,45ZM75,35L85,35L85,45L75,45ZM95,35L105,35L105,45L95,45ZM145,35L155,35L155,45L145,45ZM165,35L175,35L175,45L165,45ZM185,35L195,35L195,45L185,45ZM205,35L215,35L215,45L205,45ZM235,35L245,35L245,45L235,45ZM255,35L285,35L285,45L255,45ZM295,35L305,35L305,45L295,45ZM15,45L25,45L25,55L15,55ZM35,45L65,45L65,55L35,55ZM75,45L85,45L85,55L75,55ZM105,45L115,45L115,55L105,55ZM135,45L145,45L145,55L135,55ZM155,45L195,45L195,55L155,55ZM205,45L225,45L225,55L205,55ZM235,45L245,45L245,55L235,55ZM255,45L285,45L285,55L255,55ZM295,45L305,45L305,55L295,55ZM15,55L25,55L25,65L15,65ZM35,55L65,55L65,65L35,65ZM75,55L85,55L85,65L75,65ZM95,55L125,55L125,65L95,65ZM135,55L155,55L155,65L135,65ZM195,55L215,55L215,65L195,65ZM235,55L245,55L245,65L235,65ZM255,55L285,55L285,65L255,65ZM295,55L305,55L305,65L295,65ZM15,65L25,65L25,75L15,75ZM75,65L85,65L85,75L75,75ZM95,65L105,65L105,75L95,75ZM115,65L125,65L125,75L115,75ZM135,65L145,65L145,75L135,75ZM185,65L205,65L205,75L185,75ZM215,65L225,65L225,75L215,75ZM235,65L245,65L245,75L235,75ZM295,65L305,65L305,75L295,75ZM15,75L85,75L85,85L15,85ZM95,75L105,75L105,85L95,85ZM115,75L125,75L125,85L115,85ZM135,75L145,75L145,85L135,85ZM155,75L165,75L165,85L155,85ZM175,75L185,75L185,85L175,85ZM195,75L205,75L205,85L195,85ZM215,75L225,75L225,85L215,85ZM235,75L305,75L305,85L235,85ZM95,85L105,85L105,95L95,95ZM115,85L135,85L135,95L115,95ZM145,85L155,85L155,95L145,95ZM185,85L195,85L195,95L185,95ZM205,85L225,85L225,95L205,95ZM15,95L35,95L35,105L15,105ZM45,95L55,95L55,105L45,105ZM75,95L95,95L95,105L75,105ZM125,95L165,95L165,105L125,105ZM175,95L205,95L205,105L175,105ZM215,95L225,95L225,105L215,105ZM235,95L265,95L265,105L235,105ZM275,95L295,95L295,105L275,105ZM15,105L45,105L45,115L15,115ZM65,105L75,105L75,115L65,115ZM105,105L115,105L115,115L105,115ZM125,105L155,105L155,115L125,115ZM165,105L215,105L215,115L165,115ZM225,105L255,105L255,115L225,115ZM295,105L305,105L305,115L295,115ZM15,115L25,115L25,125L15,125ZM35,115L45,115L45,125L35,125ZM55,115L65,115L65,125L55,125ZM75,115L95,115L95,125L75,125ZM125,115L145,115L145,125L125,125ZM155,115L175,115L175,125L155,125ZM185,115L195,115L195,125L185,125ZM205,115L225,115L225,125L205,125ZM245,115L265,115L265,125L245,125ZM275,115L295,115L295,125L275,125ZM15,125L65,125L65,135L15,135ZM85,125L145,125L145,135L85,135ZM155,125L165,125L165,135L155,135ZM175,125L185,125L185,135L175,135ZM195,125L205,125L205,135L195,135ZM235,125L255,125L255,135L235,135ZM265,125L295,125L295,135L265,135ZM25,135L45,135L45,145L25,145ZM65,135L85,135L85,145L65,145ZM115,135L135,135L135,145L115,145ZM145,135L155,135L155,145L145,145ZM175,135L205,135L205,145L175,145ZM215,135L225,135L225,145L215,145ZM245,135L265,135L265,145L245,145ZM285,135L305,135L305,145L285,145ZM25,145L35,145L35,155L25,155ZM45,145L55,145L55,155L45,155ZM85,145L95,145L95,155L85,155ZM105,145L115,145L115,155L105,155ZM125,145L135,145L135,155L125,155ZM175,145L195,145L195,155L175,155ZM225,145L235,145L235,155L225,155ZM265,145L275,145L275,155L265,155ZM295,145L305,145L305,155L295,155ZM15,155L35,155L35,165L15,165ZM45,155L65,155L65,165L45,165ZM75,155L95,155L95,165L75,165ZM115,155L135,155L135,165L115,165ZM145,155L165,155L165,165L145,165ZM205,155L215,155L215,165L205,165ZM235,155L265,155L265,165L235,165ZM295,155L305,155L305,165L295,165ZM45,165L55,165L55,175L45,175ZM65,165L75,165L75,175L65,175ZM95,165L105,165L105,175L95,175ZM115,165L135,165L135,175L115,175ZM145,165L155,165L155,175L145,175ZM175,165L205,165L205,175L175,175ZM215,165L225,165L225,175L215,175ZM235,165L245,165L245,175L235,175ZM265,165L295,165L295,175L265,175ZM15,175L25,175L25,185L15,185ZM35,175L55,175L55,185L35,185ZM65,175L115,175L115,185L65,185ZM135,175L145,175L145,185L135,185ZM155,175L165,175L165,185L155,185ZM175,175L235,175L235,185L175,185ZM245,175L255,175L255,185L245,185ZM275,175L295,175L295,185L275,185ZM25,185L35,185L35,195L25,195ZM45,185L55,185L55,195L45,195ZM135,185L155,185L155,195L135,195ZM175,185L185,185L185,195L175,195ZM195,185L215,185L215,195L195,195ZM235,185L245,185L245,195L235,195ZM275,185L285,185L285,195L275,195ZM15,195L25,195L25,205L15,205ZM45,195L95,195L95,205L45,205ZM125,195L155,195L155,205L125,205ZM165,195L195,195L195,205L165,205ZM215,195L225,195L225,205L215,205ZM235,195L265,195L265,205L235,205ZM275,195L285,195L285,205L275,205ZM35,205L75,205L75,215L35,215ZM85,205L105,205L105,215L85,215ZM115,205L125,205L125,215L115,215ZM135,205L155,205L155,215L135,215ZM205,205L225,205L225,215L205,215ZM265,205L275,205L275,215L265,215ZM285,205L295,205L295,215L285,215ZM15,215L25,215L25,225L15,225ZM35,215L65,215L65,225L35,225ZM75,215L95,215L95,225L75,225ZM115,215L125,215L125,225L115,225ZM145,215L165,215L165,225L145,225ZM175,215L205,215L205,225L175,225ZM215,215L285,215L285,225L215,225ZM295,215L305,215L305,225L295,225ZM95,225L105,225L105,235L95,235ZM125,225L135,225L135,235L125,235ZM145,225L165,225L165,235L145,235ZM175,225L195,225L195,235L175,235ZM215,225L225,225L225,235L215,235ZM255,225L265,225L265,235L255,235ZM285,225L295,225L295,235L285,235ZM15,235L85,235L85,245L15,245ZM95,235L115,235L115,245L95,245ZM185,235L195,235L195,245L185,245ZM205,235L225,235L225,245L205,245ZM235,235L245,235L245,245L235,245ZM255,235L295,235L295,245L255,245ZM15,245L25,245L25,255L15,255ZM75,245L85,245L85,255L75,255ZM105,245L125,245L125,255L105,255ZM155,245L165,245L165,255L155,255ZM175,245L185,245L185,255L175,255ZM195,245L225,245L225,255L195,255ZM255,245L265,245L265,255L255,255ZM285,245L305,245L305,255L285,255ZM15,255L25,255L25,265L15,265ZM35,255L65,255L65,265L35,265ZM75,255L85,255L85,265L75,265ZM115,255L125,255L125,265L115,265ZM135,255L145,255L145,265L135,265ZM175,255L195,255L195,265L175,265ZM215,255L275,255L275,265L215,265ZM15,265L25,265L25,275L15,275ZM35,265L65,265L65,275L35,275ZM75,265L85,265L85,275L75,275ZM95,265L115,265L115,275L95,275ZM125,265L145,265L145,275L125,275ZM155,265L195,265L195,275L155,275ZM215,265L235,265L235,275L215,275ZM295,265L305,265L305,275L295,275ZM15,275L25,275L25,285L15,285ZM35,275L65,275L65,285L35,285ZM75,275L85,275L85,285L75,285ZM105,275L115,275L115,285L105,285ZM135,275L145,275L145,285L135,285ZM175,275L185,275L185,285L175,285ZM205,275L215,275L215,285L205,285ZM235,275L245,275L245,285L235,285ZM255,275L265,275L265,285L255,285ZM275,275L285,275L285,285L275,285ZM295,275L305,275L305,285L295,285ZM15,285L25,285L25,295L15,295ZM75,285L85,285L85,295L75,295ZM95,285L115,285L115,295L95,295ZM135,285L155,285L155,295L135,295ZM165,285L195,285L195,295L165,295ZM205,285L235,285L235,295L205,295ZM275,285L285,285L285,295L275,295ZM295,285L305,285L305,295L295,295ZM15,295L85,295L85,305L15,305ZM95,295L115,295L115,305L95,305ZM125,295L165,295L165,305L125,305ZM175,295L185,295L185,305L175,305ZM195,295L215,295L215,305L195,305ZM225,295L265,295L265,305L225,305ZM275,295L295,295L295,305L275,305Z"/></svg>
