<?xml version="1.0"?>
<svg xmlns="http://www.w3.org/2000/svg" xmlns:xlink="http://www.w3.org/1999/xlink" version="1.1" width="320px" height="320px" viewBox="0 0 320 320"><rect x="0" y="0" width="320" height="320" fill="#ffffff" fill-opacity="1"/><path fill="#000000" fill-opacity="1" d="M15,15L85,15L85,25L15,25ZM95,15L105,15L105,25L95,25ZM145,15L165,15L165,25L145,25ZM175,15L185,15L185,25L175,25ZM195,15L205,15L205,25L195,25ZM235,15L305,15L305,25L235,25ZM15,25L25,25L25,35L15,35ZM75,25L85,25L85,35L75,35ZM95,25L105,25L105,35L95,35ZM125,25L145,25L145,35L125,35ZM165,25L175,25L175,35L165,35ZM185,25L195,25L195,35L185,35ZM205,25L215,25L215,35L205,35ZM235,25L245,25L245,35L235,35ZM295,25L305,25L305,35L295,35ZM15,35L25,35L25,45L15,45ZM35,35L65,35L65,45L35,45ZM75,35L85,35L85,45L75,45ZM95,35L115,35L115,45L95,45ZM135,35L155,35L155,45L135,45ZM205,35L225,35L225,45L205,45ZM235,35L245,35L245,45L235,45ZM255,35L285,35L285,45L255,45ZM295,35L305,35L305,45L295,45ZM15,45L25,45L25,55L15,55ZM35,45L65,45L65,55L35,55ZM75,45L85,45L85,55L75,55ZM95,45L125,45L125,55L95,55ZM135,45L145,45L145,55L135,55ZM165,45L195,45L195,55L165,55ZM215,45L225,45L225,55L215,55ZM235,45L245,45L245,55L235,55ZM255,45L285,45L285,55L255,55ZM295,45L305,45L305,55L295,55ZM15,55L25,55L25,65L15,65ZM35,55L65,55L65,65L35,65ZM75,55L85,55L85,65L75,65ZM105,55L125,55L125,65L105,65ZM135,55L155,55L155,65L135,65ZM165,55L175,55L175,65L165,65ZM205,55L215,55L215,65L205,65ZM235,55L245,55L245,65L235,65ZM255,55L285,55L285,65L255,65ZM295,55L305,55L305,65L295,65ZM15,65L25,65L25,75L15,75ZM75,65L85,65L85,75L75,75ZM95,65L125,65L125,75L95,75ZM175,65L195,65L195,75L175,75ZM205,65L225,65L225,75L205,75ZM235,65L245,65L245,75L235,75ZM295,65L305,65L305,75L295,75ZM15,75L85,75L85,85L15,85ZM95,75L105,75L105,85L95,85ZM115,75L125,75L125,85L115,85ZM135,75L145,75L145,85L135,85ZM155,75L165,75L165,85L155,85ZM175,75L185,75L185,85L175,85ZM195,75L205,75L205,85L195,85ZM215,75L225,75L225,85L215,85ZM235,75L305,75L305,85L235,85ZM115,85L135,85L135,95L115,95ZM145,85L155,85L155,95L145,95ZM205,85L225,85L225,95L205,95ZM15,95L35,95L35,105L15,105ZM55,95L85,95L85,105L55,105ZM115,95L125,95L125,105L115,105ZM135,95L165,95L165,105L135,105ZM175,95L195,95L195,105L175,105ZM205,95L215,95L215,105L205,105ZM245,95L255,95L255,105L245,105ZM265,95L305,95L305,105L265,105ZM35,105L45,105L45,115L35,115ZM55,105L65,105L65,115L55,115ZM145,105L155,105L155,115L145,115ZM165,105L185,105L185,115L165,115ZM215,105L225,105L225,115L215,115ZM235,105L245,105L245,115L235,115ZM255,105L265,105L265,115L255,115ZM275,105L305,105L305,115L275,115ZM15,115L35,115L35,125L15,125ZM45,115L65,115L65,125L45,125ZM75,115L85,115L85,125L75,125ZM105,115L125,115L125,125L105,125ZM145,115L165,115L165,125L145,125ZM175,115L185,115L185,125L175,125ZM195,115L215,115L215,125L195,125ZM225,115L245,115L245,125L225,125ZM265,115L275,115L275,125L265,125ZM295,115L305,115L305,125L295,125ZM25,125L75,125L75,135L25,135ZM95,125L115,125L115,135L95,135ZM135,125L155,125L155,135L135,135ZM185,125L225,125L225,135L185,135ZM285,125L305,125L305,135L285,135ZM35,135L45,135L45,145L35,145ZM55,135L65,135L65,145L55,145ZM75,135L85,135L85,145L75,145ZM125,135L135,135L135,145L125,145ZM205,135L225,135L225,145L205,145ZM235,135L275,135L275,145L235,145ZM285,135L295,135L295,145L285,145ZM15,145L35,145L35,155L15,155ZM45,145L75,145L75,155L45,155ZM105,145L125,145L125,155L105,155ZM135,145L155,145L155,155L135,155ZM165,145L185,145L185,155L165,155ZM215,145L225,145L225,155L215,155ZM235,145L265,145L265,155L235,155ZM275,145L295,145L295,155L275,155ZM45,155L55,155L55,165L45,165ZM75,155L95,155L95,165L75,165ZM105,155L115,155L115,165L105,165ZM125,155L185,155L185,165L125,165ZM195,155L205,155L205,165L195,165ZM215,155L255,155L255,165L215,165ZM285,155L305,155L305,165L285,165ZM15,165L35,165L35,175L15,175ZM45,165L65,165L65,175L45,175ZM105,165L115,165L115,175L105,175ZM125,165L135,165L135,175L125,175ZM145,165L155,165L155,175L145,175ZM185,165L225,165L225,175L185,175ZM275,165L305,165L305,175L275,175ZM25,175L45,175L45,185L25,185ZM65,175L95,175L95,185L65,185ZM135,175L145,175L145,185L135,185ZM185,175L215,175L215,185L185,185ZM225,175L235,175L235,185L225,185ZM245,175L255,175L255,185L245,185ZM275,175L295,175L295,185L275,185ZM15,185L35,185L35,195L15,195ZM45,185L55,185L55,195L45,195ZM95,185L105,185L105,195L95,195ZM145,185L165,185L165,195L145,195ZM205,185L245,185L245,195L205,195ZM255,185L265,185L265,195L255,195ZM275,185L305,185L305,195L275,195ZM35,195L45,195L45,205L35,205ZM65,195L85,195L85,205L65,205ZM95,195L105,195L105,205L95,205ZM115,195L125,195L125,205L115,205ZM145,195L155,195L155,205L145,205ZM165,195L185,195L185,205L165,205ZM225,195L245,195L245,205L225,205ZM285,195L295,195L295,205L285,205ZM55,205L65,205L65,215L55,215ZM85,205L105,205L105,215L85,215ZM115,205L125,205L125,215L115,215ZM135,205L155,205L155,215L135,215ZM165,205L175,205L175,215L165,215ZM205,205L225,205L225,215L205,215ZM265,205L275,205L275,215L265,215ZM285,205L295,205L295,215L285,215ZM15,215L45,215L45,225L15,225ZM75,215L85,215L85,225L75,225ZM115,215L145,215L145,225L115,225ZM185,215L195,215L195,225L185,225ZM205,215L265,215L265,225L205,225ZM95,225L105,225L105,235L95,235ZM115,225L125,225L125,235L115,235ZM135,225L185,225L185,235L135,235ZM195,225L205,225L205,235L195,235ZM215,225L225,225L225,235L215,235ZM255,225L265,225L265,235L255,235ZM275,225L285,225L285,235L275,235ZM15,235L85,235L85,245L15,245ZM125,235L135,235L135,245L125,245ZM145,235L165,235L165,245L145,245ZM175,235L185,235L185,245L175,245ZM195,235L205,235L205,245L195,245ZM215,235L225,235L225,245L215,245ZM235,235L245,235L245,245L235,245ZM255,235L265,235L265,245L255,245ZM295,235L305,235L305,245L295,245ZM15,245L25,245L25,255L15,255ZM75,245L85,245L85,255L75,255ZM95,245L135,245L135,255L95,255ZM185,245L195,245L195,255L185,255ZM205,245L225,245L225,255L205,255ZM255,245L295,245L295,255L255,255ZM15,255L25,255L25,265L15,265ZM35,255L65,255L65,265L35,265ZM75,255L85,255L85,265L75,265ZM95,255L115,255L115,265L95,265ZM155,255L165,255L165,265L155,265ZM175,255L195,255L195,265L175,265ZM215,255L265,255L265,265L215,265ZM295,255L305,255L305,265L295,265ZM15,265L25,265L25,275L15,275ZM35,265L65,265L65,275L35,275ZM75,265L85,265L85,275L75,275ZM105,265L125,265L125,275L105,275ZM145,265L155,265L155,275L145,275ZM205,265L215,265L215,275L205,275ZM245,265L295,265L295,275L245,275ZM15,275L25,275L25,285L15,285ZM35,275L65,275L65,285L35,285ZM75,275L85,275L85,285L75,285ZM105,275L115,275L115,285L105,285ZM145,275L185,275L185,285L145,285ZM195,275L215,275L215,285L195,285ZM275,275L305,275L305,285L275,285ZM15,285L25,285L25,295L15,295ZM75,285L85,285L85,295L75,295ZM95,285L115,285L115,295L95,295ZM135,285L155,285L155,295L135,295ZM215,285L245,285L245,295L215,295ZM265,285L285,285L285,295L265,295ZM15,295L85,295L85,305L15,305ZM95,295L105,295L105,305L95,305ZM115,295L125,295L125,305L115,305ZM175,295L185,295L185,305L175,305ZM195,295L215,295L215,305L195,305ZM225,295L265,295L265,305L225,305ZM275,295L295,295L295,305L275,305Z"/></svg>
