<?xml version="1.0"?>
<svg xmlns="http://www.w3.org/2000/svg" xmlns:xlink="http://www.w3.org/1999/xlink" version="1.1" width="320px" height="320px" viewBox="0 0 320 320"><rect x="0" y="0" width="320" height="320" fill="#ffffff" fill-opacity="1"/><path fill="#000000" fill-opacity="1" d="M15,15L85,15L85,25L15,25ZM95,15L115,15L115,25L95,25ZM155,15L175,15L175,25L155,25ZM195,15L205,15L205,25L195,25ZM215,15L225,15L225,25L215,25ZM235,15L305,15L305,25L235,25ZM15,25L25,25L25,35L15,35ZM75,25L85,25L85,35L75,35ZM145,25L155,25L155,35L145,35ZM165,25L175,25L175,35L165,35ZM195,25L205,25L205,35L195,35ZM235,25L245,25L245,35L235,35ZM295,25L305,25L305,35L295,35ZM15,35L25,35L25,45L15,45ZM35,35L65,35L65,45L35,45ZM75,35L85,35L85,45L75,45ZM95,35L105,35L105,45L95,45ZM125,35L145,35L145,45L125,45ZM165,35L175,35L175,45L165,45ZM185,35L195,35L195,45L185,45ZM215,35L225,35L225,45L215,45ZM235,35L245,35L245,45L235,45ZM255,35L285,35L285,45L255,45ZM295,35L305,35L305,45L295,45ZM15,45L25,45L25,55L15,55ZM35,45L65,45L65,55L35,55ZM75,45L85,45L85,55L75,55ZM95,45L115,45L115,55L95,55ZM125,45L135,45L135,55L125,55ZM145,45L195,45L195,55L145,55ZM215,45L225,45L225,55L215,55ZM235,45L245,45L245,55L235,55ZM255,45L285,45L285,55L255,55ZM295,45L305,45L305,55L295,55ZM15,55L25,55L25,65L15,65ZM35,55L65,55L65,65L35,65ZM75,55L85,55L85,65L75,65ZM95,55L135,55L135,65L95,65ZM185,55L225,55L225,65L185,65ZM235,55L245,55L245,65L235,65ZM255,55L285,55L285,65L255,65ZM295,55L305,55L305,65L295,65ZM15,65L25,65L25,75L15,75ZM75,65L85,65L85,75L75,75ZM105,65L115,65L115,75L105,75ZM135,65L145,65L145,75L135,75ZM155,65L225,65L225,75L155,75ZM235,65L245,65L245,75L235,75ZM295,65L305,65L305,75L295,75ZM15,75L85,75L85,85L15,85ZM95,75L105,75L105,85L95,85ZM115,75L125,75L125,85L115,85ZM135,75L145,75L145,85L135,85ZM155,75L165,75L165,85L155,85ZM175,75L185,75L185,85L175,85ZM195,75L205,75L205,85L195,85ZM215,75L225,75L225,85L215,85ZM235,75L305,75L305,85L235,85ZM105,85L115,85L115,95L105,95ZM125,85L135,85L135,95L125,95ZM145,85L185,85L185,95L145,95ZM205,85L215,85L215,95L205,95ZM15,95L55,95L55,105L15,105ZM75,95L85,95L85,105L75,105ZM95,95L105,95L105,105L95,105ZM155,95L165,95L165,105L155,105ZM175,95L235,95L235,105L175,105ZM255,95L285,95L285,105L255,105ZM295,95L305,95L305,105L295,105ZM15,105L25,105L25,115L15,115ZM35,105L45,105L45,115L35,115ZM55,105L65,105L65,115L55,115ZM105,105L115,105L115,115L105,115ZM165,105L185,105L185,115L165,115ZM195,105L215,105L215,115L195,115ZM225,105L245,105L245,115L225,115ZM255,105L275,105L275,115L255,115ZM295,105L305,105L305,115L295,115ZM15,115L35,115L35,125L15,125ZM55,115L85,115L85,125L55,125ZM145,115L175,115L175,125L145,125ZM205,115L225,115L225,125L205,125ZM265,115L295,115L295,125L265,125ZM35,125L45,125L45,135L35,135ZM65,125L75,125L75,135L65,135ZM85,125L95,125L95,135L85,135ZM125,125L145,125L145,135L125,135ZM165,125L175,125L175,135L165,135ZM185,125L195,125L195,135L185,135ZM215,125L235,125L235,135L215,135ZM245,125L255,125L255,135L245,135ZM265,125L275,125L275,135L265,135ZM295,125L305,125L305,135L295,135ZM15,135L55,135L55,145L15,145ZM65,135L115,135L115,145L65,145ZM125,135L135,135L135,145L125,145ZM145,135L175,135L175,145L145,145ZM185,135L195,135L195,145L185,145ZM215,135L265,135L265,145L215,145ZM275,135L285,135L285,145L275,145ZM35,145L45,145L45,155L35,155ZM85,145L105,145L105,155L85,155ZM115,145L135,145L135,155L115,155ZM155,145L175,145L175,155L155,155ZM185,145L195,145L195,155L185,155ZM205,145L225,145L225,155L205,155ZM235,145L245,145L245,155L235,155ZM265,145L295,145L295,155L265,155ZM15,155L35,155L35,165L15,165ZM45,155L55,155L55,165L45,165ZM75,155L105,155L105,165L75,165ZM135,155L145,155L145,165L135,165ZM155,155L165,155L165,165L155,165ZM185,155L215,155L215,165L185,165ZM235,155L245,155L245,165L235,165ZM265,155L275,155L275,165L265,165ZM295,155L305,155L305,165L295,165ZM35,165L45,165L45,175L35,175ZM65,165L75,165L75,175L65,175ZM105,165L125,165L125,175L105,175ZM135,165L145,165L145,175L135,175ZM175,165L185,165L185,175L175,175ZM195,165L225,165L225,175L195,175ZM235,165L265,165L265,175L235,175ZM275,165L295,165L295,175L275,175ZM15,175L45,175L45,185L15,185ZM55,175L65,175L65,185L55,185ZM75,175L85,175L85,185L75,185ZM125,175L135,175L135,185L125,185ZM145,175L165,175L165,185L145,185ZM175,175L195,175L195,185L175,185ZM235,175L245,175L245,185L235,185ZM255,175L295,175L295,185L255,185ZM55,185L75,185L75,195L55,195ZM85,185L105,185L105,195L85,195ZM135,185L175,185L175,195L135,195ZM195,185L215,185L215,195L195,195ZM235,185L245,185L245,195L235,195ZM285,185L305,185L305,195L285,195ZM15,195L25,195L25,205L15,205ZM35,195L55,195L55,205L35,205ZM65,195L85,195L85,205L65,205ZM95,195L105,195L105,205L95,205ZM115,195L165,195L165,205L115,205ZM185,195L195,195L195,205L185,205ZM225,195L235,195L235,205L225,205ZM245,195L265,195L265,205L245,205ZM285,195L305,195L305,205L285,205ZM45,205L65,205L65,215L45,215ZM85,205L95,205L95,215L85,215ZM115,205L125,205L125,215L115,215ZM135,205L185,205L185,215L135,215ZM205,205L215,205L215,215L205,215ZM225,205L245,205L245,215L225,215ZM265,205L285,205L285,215L265,215ZM295,205L305,205L305,215L295,215ZM25,215L45,215L45,225L25,225ZM65,215L85,215L85,225L65,225ZM95,215L105,215L105,225L95,225ZM115,215L145,215L145,225L115,225ZM155,215L165,215L165,225L155,225ZM175,215L265,215L265,225L175,225ZM275,215L285,215L285,225L275,225ZM295,215L305,215L305,225L295,225ZM95,225L115,225L115,235L95,235ZM135,225L145,225L145,235L135,235ZM155,225L165,225L165,235L155,235ZM175,225L185,225L185,235L175,235ZM215,225L225,225L225,235L215,235ZM255,225L275,225L275,235L255,235ZM285,225L295,225L295,235L285,235ZM15,235L85,235L85,245L15,245ZM115,235L155,235L155,245L115,245ZM195,235L225,235L225,245L195,245ZM235,235L245,235L245,245L235,245ZM255,235L265,235L265,245L255,245ZM275,235L295,235L295,245L275,245ZM15,245L25,245L25,255L15,255ZM75,245L85,245L85,255L75,255ZM115,245L125,245L125,255L115,255ZM165,245L175,245L175,255L165,255ZM195,245L225,245L225,255L195,255ZM255,245L265,245L265,255L255,255ZM275,245L285,245L285,255L275,255ZM15,255L25,255L25,265L15,265ZM35,255L65,255L65,265L35,265ZM75,255L85,255L85,265L75,265ZM105,255L115,255L115,265L105,265ZM135,255L145,255L145,265L135,265ZM155,255L175,255L175,265L155,265ZM205,255L305,255L305,265L205,265ZM15,265L25,265L25,275L15,275ZM35,265L65,265L65,275L35,275ZM75,265L85,265L85,275L75,275ZM95,265L145,265L145,275L95,275ZM185,265L205,265L205,275L185,275ZM275,265L295,265L295,275L275,275ZM15,275L25,275L25,285L15,285ZM35,275L65,275L65,285L35,285ZM75,275L85,275L85,285L75,285ZM95,275L135,275L135,285L95,285ZM145,275L155,275L155,285L145,285ZM175,275L205,275L205,285L175,285ZM235,275L255,275L255,285L235,285ZM265,275L285,275L285,285L265,285ZM295,275L305,275L305,285L295,285ZM15,285L25,285L25,295L15,295ZM75,285L85,285L85,295L75,295ZM95,285L135,285L135,295L95,295ZM165,285L185,285L185,295L165,295ZM215,285L235,285L235,295L215,295ZM245,285L285,285L285,295L245,295ZM295,285L305,285L305,295L295,295ZM15,295L85,295L85,305L15,305ZM95,295L105,295L105,305L95,305ZM115,295L125,295L125,305L115,305ZM155,295L165,295L165,305L155,305ZM175,295L185,295L185,305L175,305ZM225,295L245,295L245,305L225,305ZM265,295L295,295L295,305L265,305Z"/></svg>
